<svg width="46" height="46" viewBox="0 0 46 46" fill="none" xmlns="http://www.w3.org/2000/svg">
<path d="M23 3.83325C12.4315 3.83325 3.83331 12.4314 3.83331 22.9999C3.83331 33.5684 12.4315 42.1666 23 42.1666C33.5685 42.1666 42.1666 33.5684 42.1666 22.9999C42.1666 12.4314 33.5685 3.83325 23 3.83325ZM23 38.3333C14.5456 38.3333 7.66665 31.4543 7.66665 22.9999C7.66665 14.5455 14.5456 7.66659 23 7.66659C31.4544 7.66659 38.3333 14.5455 38.3333 22.9999C38.3333 31.4543 31.4544 38.3333 23 38.3333Z" fill="#8F8F8F"/>
<path d="M19.1648 26.0419L14.7583 21.6431L12.052 24.3571L19.1686 31.4584L32.0218 18.6052L29.3116 15.895L19.1648 26.0419Z" fill="#8F8F8F"/>
</svg>
