<svg width="159" height="158" viewBox="0 0 159 158" fill="none" xmlns="http://www.w3.org/2000/svg">
<circle cx="79.8607" cy="79" r="79" fill="#F5F5F5"/>
<path d="M54.5157 75.4071C53.8133 75.4071 53.1549 74.9242 52.9354 74.2219C49.2041 61.36 55.0425 56.8386 58.8615 55.3023C61.8465 54.0731 65.2705 54.1609 68.2555 55.4779C69.4407 56.0046 70.2747 56.6631 71.1966 57.8044C71.7672 58.5067 71.6794 59.5603 70.9771 60.1309C70.2747 60.7016 69.2212 60.6138 68.6505 59.9114C68.036 59.1652 67.597 58.814 66.8947 58.5067C64.7437 57.541 62.2416 57.4971 60.0906 58.375C53.945 60.8772 54.5157 67.8568 56.096 73.3439C56.3594 74.2219 55.8326 75.1437 54.9547 75.4071C54.823 75.3632 54.6474 75.4071 54.5157 75.4071Z" fill="#414042"/>
<path d="M102.759 90.5077H50.2577C49.1602 90.5077 48.2384 89.6297 48.1945 88.5323C48.1067 85.9863 48.0628 83.4841 48.1506 81.0259C46.7459 77.8214 39.6346 59.648 52.1013 51.3954C52.1452 51.3515 63.9535 42.9672 75.7179 52.7123C76.1569 53.0635 76.7715 53.0635 77.2104 52.7123C88.9748 42.9672 100.783 51.3515 100.915 51.4393C113.338 59.6041 106.182 77.7775 104.822 80.982C104.909 83.4841 104.909 85.9424 104.778 88.4884C104.734 89.6297 103.856 90.5077 102.759 90.5077ZM52.233 86.3813H100.739C100.783 84.4499 100.783 82.5623 100.695 80.6747C100.695 80.3674 100.739 80.0163 100.871 79.709C100.959 79.5334 109.036 61.7112 98.5883 54.8194C98.1493 54.5121 89.1504 48.1909 79.8443 55.8729C77.9128 57.4971 75.0595 57.4971 73.128 55.8729C63.7779 48.147 54.5596 54.6877 54.4718 54.7755C43.9365 61.7112 52.0135 79.5773 52.1013 79.7529C52.233 80.0602 52.3208 80.3675 52.2769 80.7186C52.233 82.6062 52.233 84.4938 52.233 86.3813Z" fill="#414042"/>
<path d="M99.554 98.9798H53.3744C52.4964 98.9798 51.7502 98.453 51.4429 97.619L48.3262 89.1469C48.1067 88.5323 48.1945 87.7861 48.5896 87.2593C48.9847 86.6886 49.5992 86.3813 50.3016 86.3813H102.715C103.373 86.3813 104.032 86.7325 104.427 87.2593C104.822 87.8299 104.909 88.5323 104.69 89.1469L101.573 97.619C101.222 98.453 100.432 98.9798 99.554 98.9798ZM54.823 94.8535H98.1493L99.7296 90.5077H53.1988L54.823 94.8535Z" fill="#414042"/>
<path d="M75.1911 133C74.0497 133 73.1279 132.078 73.1279 130.937V124.352C73.1279 123.211 74.0497 122.289 75.1911 122.289H84.2778V120.621H66.5434C65.402 120.621 64.4802 119.699 64.4802 118.558V111.754C64.4802 110.613 65.402 109.691 66.5434 109.691H90.0283V106.618H60.749C59.6076 106.618 58.6858 105.696 58.6858 104.555V96.9167C58.6858 95.7753 59.6076 94.8535 60.749 94.8535C61.8903 94.8535 62.8121 95.7753 62.8121 96.9167V102.492H92.0914C93.2327 102.492 94.1546 103.413 94.1546 104.555V111.754C94.1546 112.895 93.2327 113.817 92.0914 113.817H68.5626V116.495H86.297C87.4383 116.495 88.3602 117.417 88.3602 118.558V124.352C88.3602 125.494 87.4383 126.415 86.297 126.415H77.2103V130.937C77.2542 132.078 76.3324 133 75.1911 133Z" fill="#414042"/>
</svg>
