<svg width="159" height="158" viewBox="0 0 159 158" fill="none" xmlns="http://www.w3.org/2000/svg">
<circle cx="79.8607" cy="79" r="79" fill="#F5F5F5"/>
<path d="M70.9072 138.661C69.911 138.661 68.7154 138.362 67.4202 137.515C66.4239 136.818 46.1993 122.023 47.5941 80.4779C46 76.7916 37.9301 56.2182 52.0774 46.8531C52.1272 46.8033 65.5273 37.2887 78.8776 48.3475C79.3757 48.7461 80.0731 48.7461 80.5713 48.3475C93.3736 37.7371 106.276 46.1059 107.371 46.8531C121.519 56.1684 113.449 76.7916 111.855 80.4779C113.25 122.023 92.9751 136.868 92.1282 137.466C88.6412 139.657 86.1007 138.362 85.0546 137.217C82.9624 135.274 83.9586 131.787 84.4568 130.492C87.8442 115.597 85.204 106.929 82.4144 102.297C81.8664 101.35 80.8203 100.802 79.6746 100.802C78.5289 100.802 77.5326 101.35 76.9348 102.297C74.0954 106.929 71.4552 115.597 74.8924 130.492C75.3905 131.787 76.4366 135.224 74.2946 137.217C73.7467 137.914 72.5511 138.661 70.9072 138.661ZM64.7303 47.7C59.0016 47.7 54.8172 50.6888 54.7674 50.6888C42.7621 58.6093 51.9778 78.7842 52.0774 79.0333C52.2268 79.382 52.3265 79.7307 52.2767 80.1292C50.7822 119.383 69.8113 133.53 70.0106 133.68C70.0604 133.73 70.8574 134.178 70.8574 134.178C70.9073 134.128 70.9073 134.078 70.9571 134.078C70.9571 133.63 70.7578 132.733 70.5585 132.135C70.5087 132.036 70.4589 131.886 70.4589 131.787C66.673 115.298 69.7615 105.335 73.0493 99.9553C74.4939 97.6141 76.9846 96.2192 79.7742 96.2192C82.5638 96.2192 85.0545 97.6141 86.4992 99.9553C89.7869 105.385 92.8754 115.298 89.0895 131.787C89.0397 131.886 89.0397 132.036 88.9899 132.135C88.7408 132.733 88.5416 133.63 88.5914 134.028C88.691 134.028 89.0397 133.979 89.6375 133.63C89.7371 133.58 108.766 119.433 107.272 80.179C107.272 79.8303 107.322 79.4318 107.471 79.0831C107.571 78.8838 116.737 58.6591 104.881 50.8383C104.831 50.8383 104.831 50.7885 104.781 50.7885C104.333 50.4896 94.1208 43.3661 83.6099 52.0338C81.4181 53.877 78.1802 53.877 75.9883 52.0338C72.0032 48.7461 68.1176 47.7 64.7303 47.7Z" fill="#414042"/>
<path d="M54.7674 74.1016C53.9704 74.1016 53.2231 73.5536 52.974 72.7566C48.7398 58.1609 55.3651 53.03 59.699 51.2865C63.0864 49.8917 66.9719 49.9914 70.3593 51.4858C71.7043 52.0836 72.6508 52.8308 73.6969 54.126C74.3445 54.923 74.2448 56.1185 73.4478 56.7661C72.6508 57.4137 71.4552 57.3141 70.8076 56.5171C70.1102 55.6702 69.6121 55.2717 68.815 54.923C66.3741 53.8271 63.5347 53.7773 61.0938 54.7736C54.1198 57.613 54.7674 65.5335 56.5607 71.7603C56.8596 72.7566 56.2618 73.8027 55.2655 74.1016C55.1161 74.1016 54.9666 74.1016 54.7674 74.1016Z" fill="#414042"/>
<path d="M88.1928 85.7084H71.3057C68.7154 85.7084 66.673 83.6161 66.673 81.0756V73.6533C66.673 71.0629 68.7652 69.0205 71.3057 69.0205H88.1928C90.7832 69.0205 92.8754 71.1127 92.8754 73.6533V81.0756C92.8256 83.6161 90.7334 85.7084 88.1928 85.7084ZM88.1928 81.0258V83.3671V81.0258ZM88.143 73.6034H71.2559V80.976H88.0932V73.6034H88.143Z" fill="#414042"/>
<path d="M68.9645 79.6809H48.8395C47.5443 79.6809 46.4982 78.6347 46.4982 77.3396C46.4982 76.0444 47.5443 74.9983 48.8395 74.9983H68.9645C70.2597 74.9983 71.3058 76.0444 71.3058 77.3396C71.3058 78.6347 70.2597 79.6809 68.9645 79.6809Z" fill="#414042"/>
<path d="M110.609 79.6809H90.4843C89.1891 79.6809 88.1431 78.6347 88.1431 77.3396C88.1431 76.0444 89.1891 74.9983 90.4843 74.9983H110.609C111.905 74.9983 112.951 76.0444 112.951 77.3396C112.951 78.6347 111.905 79.6809 110.609 79.6809Z" fill="#414042"/>
</svg>
