<svg width="159" height="158" viewBox="0 0 159 158" fill="none" xmlns="http://www.w3.org/2000/svg">
<circle cx="79.8607" cy="79" r="79" fill="#F5F5F5"/>
<path d="M73.1653 132.355C72.1884 132.355 71.1184 132.076 69.8623 131.285C68.9784 130.634 50.0446 116.817 51.3472 78.0189C49.8586 74.5764 42.3222 55.317 55.534 46.6176C59.7209 43.5473 70.4206 39.7792 80.3294 47.8272C80.3759 47.8737 80.5155 47.9667 80.6086 48.0598C81.0738 48.4319 81.6785 48.4319 82.1437 48.0133C82.6089 47.6411 83.0741 47.2689 83.5393 46.9433C93.1225 40.0583 103.264 43.7334 107.265 46.6642C120.383 55.317 112.847 74.5764 111.359 78.0189C112.661 116.817 93.7273 130.68 92.9365 131.238C89.7266 133.285 87.3075 132.076 86.3306 131.006C84.3767 129.191 85.3071 125.935 85.7723 124.725C88.9357 110.862 86.4701 102.768 83.865 98.3949C83.3533 97.511 82.3763 96.9992 81.3064 96.9992C80.2364 96.9992 79.306 97.511 78.7942 98.3949C76.1426 102.768 73.677 110.862 76.8869 124.725C77.3521 125.935 78.2825 129.145 76.3287 130.959C75.8169 131.657 74.7005 132.355 73.1653 132.355ZM67.3502 47.4085C62.1399 47.4085 58.3253 50.0602 58.0462 50.2462C46.8813 57.5965 55.441 76.5303 55.534 76.7163C55.6736 77.042 55.7667 77.3676 55.7201 77.7398C54.3245 114.584 72.0953 127.61 72.2814 127.703C72.3744 127.749 73.0722 128.168 73.0722 128.168C73.1188 128.121 73.1188 128.075 73.1653 128.075C73.1653 127.703 73.0257 126.865 72.7931 126.261C72.7466 126.168 72.7001 126.075 72.7001 125.935C69.118 110.537 72.0488 101.233 75.1191 96.2084C76.4217 94.0219 78.7942 92.7194 81.3529 92.7194C83.958 92.7194 86.284 94.0219 87.6331 96.2084C90.7035 101.279 93.5877 110.537 90.0522 125.935C90.0057 126.028 90.0057 126.168 89.9591 126.261C89.7265 126.819 89.5405 127.656 89.587 128.028C89.68 128.028 90.0057 127.982 90.5639 127.656C90.6569 127.61 108.428 114.398 107.032 77.7398C107.032 77.4142 107.079 77.042 107.218 76.7163C107.311 76.5303 115.871 57.5965 104.799 50.3393C104.334 50.0136 95.4951 43.8264 86.098 50.5719C85.7258 50.851 85.3536 51.1301 84.9815 51.4558C82.888 53.177 79.9573 53.177 77.8638 51.4558L77.8173 51.4093C77.7708 51.3627 77.6778 51.3162 77.6312 51.2697C74.0026 48.3389 70.4206 47.4085 67.3502 47.4085Z" fill="#414042"/>
<path d="M91.7269 63.5511L82.0972 78.9958C81.5854 79.7867 80.7481 80.2519 79.8642 80.2519C79.399 80.2519 78.9338 80.1123 78.4686 79.8332C77.2591 79.0424 76.8404 77.4607 77.6312 76.2046L84.7488 64.7606H77.2125C76.3752 64.7606 75.5843 64.3419 75.0726 63.6441C74.5609 62.9463 74.4678 62.0624 74.747 61.2716L78.9338 49.5484C79.0268 49.5949 79.0733 49.6415 79.1664 49.7345C80.4224 50.8045 82.2367 50.8045 83.5393 49.7345C83.958 49.3623 84.3767 49.0832 84.7954 48.7576L80.9342 59.5038H89.4474C90.4243 59.5038 91.2617 60.0155 91.7269 60.8529C92.2851 61.7368 92.2386 62.7137 91.7269 63.5511Z" fill="#414042"/>
</svg>
