<svg width="159" height="158" viewBox="0 0 159 158" fill="none" xmlns="http://www.w3.org/2000/svg">
<circle cx="79.8607" cy="79" r="79" fill="#F5F5F5"/>
<path d="M107.465 64.0788C107.316 64.0788 107.117 64.0788 106.968 63.9794C105.974 63.6812 105.427 62.6375 105.676 61.6436C107.465 55.4809 108.111 47.5291 101.153 44.6963C98.718 43.7023 95.8851 43.752 93.4499 44.8454C92.6547 45.1933 92.1577 45.5908 91.4619 46.4357C90.8159 47.2309 89.6231 47.3303 88.8279 46.6842C88.0327 46.0381 87.9333 44.8454 88.5794 44.0502C89.6231 42.758 90.6171 42.0125 91.9092 41.4161C95.2888 39.9252 99.1653 39.8258 102.545 41.2173C106.869 42.9568 113.479 48.0758 109.254 62.6375C109.055 63.5321 108.31 64.0788 107.465 64.0788Z" fill="#414042"/>
<path d="M73.4213 128.488C72.4273 128.488 71.2346 128.19 69.9424 127.345C68.9484 126.65 48.7707 111.889 50.1623 70.3906C49.5162 68.8996 47.727 64.3273 46.8822 58.9102C46.7828 58.1647 47.0313 57.3695 47.5779 56.8725C48.1246 56.3258 48.9198 56.127 49.6653 56.2761C50.7587 56.5246 51.8023 56.624 52.8957 56.624C61.1954 56.624 68.0041 49.865 68.0041 41.5156C68.0041 39.7264 67.6563 37.9373 67.0102 36.2475C66.712 35.502 66.8611 34.6572 67.3581 34.0111C67.855 33.365 68.6502 33.0171 69.4454 33.1165C73.7195 33.5638 77.7451 35.3033 81.3731 38.3349C81.8701 38.7325 82.5659 38.7325 83.0629 38.3349C95.8355 27.749 108.707 36.0487 109.801 36.8439C123.915 46.1376 115.864 66.7129 114.274 70.3906C115.665 111.839 95.4379 126.65 94.593 127.246C91.1141 129.433 88.5794 128.141 87.5358 126.998C85.4484 125.059 86.4424 121.58 86.9394 120.288C90.3189 105.428 87.6849 96.7806 84.9017 92.1587C84.355 91.2144 83.3114 90.6677 82.1683 90.6677C81.0252 90.6677 80.0313 91.2144 79.4349 92.1587C76.602 96.7806 73.968 105.428 77.3972 120.288C77.8942 121.58 78.9379 125.01 76.8008 126.998C76.2044 127.743 75.0117 128.488 73.4213 128.488ZM52.0508 61.3454C53.0945 65.7189 54.5358 68.999 54.5855 68.999C54.7346 69.3469 54.834 69.6948 54.7843 70.0924C53.2933 109.255 72.2782 123.369 72.477 123.519C72.5267 123.568 73.3219 124.016 73.3219 124.016C73.3716 123.966 73.3716 123.916 73.4213 123.916C73.4213 123.469 73.2225 122.574 73.0237 121.978C72.974 121.879 72.9243 121.729 72.9243 121.63C69.1472 105.18 72.2285 95.24 75.5087 89.8725C76.9499 87.5367 79.4349 86.1451 82.218 86.1451C85.0011 86.1451 87.4861 87.5367 88.9273 89.8725C92.2075 95.2897 95.2888 105.18 91.5117 121.63C91.462 121.729 91.462 121.879 91.4123 121.978C91.1638 122.574 90.965 123.469 91.0147 123.866C91.1638 123.866 91.462 123.817 92.0584 123.469C92.1578 123.419 111.143 109.305 109.652 70.1421C109.652 69.7942 109.701 69.3966 109.851 69.0487C109.95 68.8499 119.094 48.6722 107.266 40.8695C107.216 40.8695 107.216 40.8198 107.167 40.8198C106.72 40.5216 96.5312 33.365 86.0448 42.0623C83.8581 43.9011 80.6276 43.9011 78.4409 42.0623C76.5523 40.4719 74.5147 39.3289 72.4273 38.6331C72.5764 39.627 72.6758 40.621 72.6758 41.6647C72.6261 52.7475 63.3325 61.8424 52.0508 61.3454Z" fill="#414042"/>
</svg>
