<svg width="28" height="28" viewBox="0 0 32 32" fill="none" xmlns="http://www.w3.org/2000/svg">
<path fill-rule="evenodd" clip-rule="evenodd" d="M16 5C12.134 5 9 8.13401 9 12C9 15.866 12.134 19 16 19C19.866 19 23 15.866 23 12C23 8.13401 19.866 5 16 5ZM7 12C7 7.02944 11.0294 3 16 3C20.9706 3 25 7.02944 25 12C25 16.9706 20.9706 21 16 21C11.0294 21 7 16.9706 7 12Z" fill="gray"/>
<path fill-rule="evenodd" clip-rule="evenodd" d="M15.9999 20.9989C13.7177 20.9989 11.4758 21.5997 9.4994 22.7409C7.52303 23.8821 5.8819 25.5234 4.74099 27.4999C4.4649 27.9783 3.85332 28.1422 3.375 27.8661C2.89668 27.59 2.73275 26.9784 3.00885 26.5001C4.32528 24.2195 6.21889 22.3256 8.49932 21.0089C10.7798 19.6921 13.3666 18.9989 15.9999 18.9989C18.6332 18.9989 21.2201 19.6921 23.5005 21.0089C25.781 22.3256 27.6746 24.2195 28.991 26.5001C29.2671 26.9784 29.1032 27.59 28.6248 27.8661C28.1465 28.1422 27.535 27.9783 27.2589 27.4999C26.1179 25.5234 24.4768 23.8821 22.5004 22.7409C20.5241 21.5997 18.2821 20.9989 15.9999 20.9989Z" fill="gray"/>
</svg>
